<?xml version="1.0" encoding="utf-8"?>
<!-- Generator: Adobe Illustrator 26.0.1, SVG Export Plug-In . SVG Version: 6.00 Build 0)  -->
<svg version="1.1" id="레이어_1" xmlns="http://www.w3.org/2000/svg" xmlns:xlink="http://www.w3.org/1999/xlink" x="0px"
	 y="0px" viewBox="0 0 456.5 468.8" style="enable-background:new 0 0 456.5 468.8;" xml:space="preserve">
<style type="text/css">
	.st0{fill:#AAA9A9;}
</style>
<g>
	<path class="st0" d="M179,276.7h-82v-97.9h82v16.5h-50.4v22.9h50.5v16.5h-50.5v25.5H179V276.7z"/>
	<path class="st0" d="M186.8,178.7h81.9v16.5H243v81.4h-30.4v-81.4h-25.8V178.7z"/>
	<path class="st0" d="M364.9,238.7v22.4c0,2.8-0.2,5.2-0.5,7.2c-0.3,2-1,3.6-2,4.8c-1,1.2-2.6,2.1-4.6,2.7c-2,0.6-4.7,0.9-8,0.9
		h-57.2c-3.3,0-6-0.3-8-0.9c-2-0.6-3.5-1.5-4.6-2.7c-1-1.2-1.7-2.8-2-4.8c-0.3-2-0.5-4.4-0.5-7.2v-66.8c0-2.8,0.1-5.2,0.5-7.1
		c0.3-2,1-3.6,2-4.9c1-1.2,2.6-2.1,4.6-2.7c2-0.6,4.7-0.9,8-0.9h57.2c3.3,0,6,0.3,8,0.9c2,0.6,3.5,1.5,4.6,2.7c1,1.3,1.7,2.9,2,4.9
		c0.3,2,0.5,4.3,0.5,7.1v19.9h-29.1v-15.7c0-1.2-0.2-2.1-0.6-2.6c-0.4-0.5-1.2-0.7-2.4-0.7H311c-1.2,0-2,0.2-2.4,0.7
		c-0.4,0.5-0.6,1.3-0.6,2.6v58.4c0,1.2,0.2,2.1,0.6,2.6c0.4,0.5,1.2,0.7,2.4,0.7h21.9c1.2,0,2-0.2,2.4-0.7c0.4-0.5,0.6-1.3,0.6-2.6
		v-18.2H364.9z"/>
</g>
</svg>
