<?xml version="1.0" encoding="utf-8"?>
<!-- Generator: Adobe Illustrator 26.0.1, SVG Export Plug-In . SVG Version: 6.00 Build 0)  -->
<svg version="1.1" id="레이어_1" xmlns="http://www.w3.org/2000/svg" xmlns:xlink="http://www.w3.org/1999/xlink" x="0px"
	 y="0px" viewBox="0 0 512 512" style="enable-background:new 0 0 512 512;" xml:space="preserve">
<style type="text/css">
	.st0{fill:#AAA9A9;}
</style>
<path class="st0" d="M375.3,270.3v62l-119.3-62v62l-119.4-62v62l-119.3-62v201.3h477.4V332.2L375.3,270.3L375.3,270.3z M169.8,446.1
	H50.5V376h119.3V446.1z M315.4,446.1H196.6V376h118.9L315.4,446.1L315.4,446.1z M461.5,446.1H342.2V376h119.3L461.5,446.1
	L461.5,446.1z"/>
<path class="st0" d="M330.7,77.4h-32.3l-9.3,200l52.2,27.6L330.7,77.4z"/>
<path class="st0" d="M212.2,40.5h-33.1l-9.3,237L222,305L212.2,40.5z"/>
</svg>
