<?xml version="1.0" encoding="utf-8"?>
<!-- Generator: Adobe Illustrator 26.0.1, SVG Export Plug-In . SVG Version: 6.00 Build 0)  -->
<svg version="1.1" id="레이어_1" xmlns="http://www.w3.org/2000/svg" xmlns:xlink="http://www.w3.org/1999/xlink" x="0px"
	 y="0px" viewBox="0 0 1000 1000" style="enable-background:new 0 0 1000 1000;" xml:space="preserve">
<style type="text/css">
	.st0{fill:#AAA9A9;}
</style>
<g>
	<path class="st0" d="M555.5,679.9c55.7-119.5,183.7-180.8,300.7-151C856.7,385.6,731,290,605.8,301.2
		c-61.4-87.9-182.7-126.2-284.9-78c90.4,72.4,121.4,204.5,67.7,319.8c-46.9,100.6-145,159.9-244.6,158.4
		c10.7,66.3,36.8,119.1,81.8,140.1c43.2,20.1,83.7,23.2,121.5,14.3c17.4,34.7,45.9,63.7,89,83.8c36.4,17,81,11,127.2-10.2
		C522.1,857.2,516.2,764.1,555.5,679.9z"/>
	<path class="st0" d="M609.2,289.4l45.6,0.7c0.3-0.7,30.3-63.8,76.6-54.7l9.5-42.8C640.4,182.2,611,285.4,609.2,289.4z"/>
	<path class="st0" d="M651.7,208.9c72.5-77.8-114.8-165.8-96.4-193.7C419.1,114.3,579.2,286.6,651.7,208.9z"/>
</g>
</svg>
