<?xml version="1.0" encoding="utf-8"?>
<!-- Generator: Adobe Illustrator 26.0.1, SVG Export Plug-In . SVG Version: 6.00 Build 0)  -->
<svg version="1.1" id="Capa_1" xmlns="http://www.w3.org/2000/svg" xmlns:xlink="http://www.w3.org/1999/xlink" x="0px" y="0px"
	 viewBox="0 0 500 500" style="enable-background:new 0 0 500 500;" xml:space="preserve">
<style type="text/css">
	.st0{fill:#AAA9A9;}
</style>
<g>
	<path class="st0" d="M183.8,474.4c4.4,2.3,9-2.7,6.3-6.9c-14.6-22.7-28.4-61-6.4-110.3c36.8-82.2,59.1-124.7,59.1-124.7
		s11.9,49.7,44.1,93.8c31,42.5,48,95.9,20.6,140.5c-2.6,4.2,2,9.1,6.3,6.9c33.9-17.3,71.9-52.1,76.2-121.3
		c1.6-21.2-0.8-50.8-12.7-88.1c-15.3-47.4-34-69.5-44.8-78.9c-3.2-2.8-8.3-0.3-8,4c3.2,51.1-16.1,64.1-27,34.8
		c-4.4-11.7-6.9-31.9-6.9-56.4c0-40.9-11.9-83.1-38.1-117.3c-6.8-8.9-14.8-17.2-23.9-24.3c-3.3-2.6-8.1,0-7.8,4.2
		c2,27.7,0.2,107.3-69.6,202.3c-63.3,88.1-38.7,155.8-30,174.1C138,441.7,161.2,462.4,183.8,474.4z"/>
</g>
</svg>
