<?xml version="1.0" encoding="utf-8"?>
<!-- Generator: Adobe Illustrator 26.0.1, SVG Export Plug-In . SVG Version: 6.00 Build 0)  -->
<svg version="1.1" id="레이어_1" xmlns="http://www.w3.org/2000/svg" xmlns:xlink="http://www.w3.org/1999/xlink" x="0px"
	 y="0px" viewBox="0 0 500 500" style="enable-background:new 0 0 500 500;" xml:space="preserve">
<style type="text/css">
	.st0{fill:#AAA9A9;}
</style>
<path class="st0" d="M335.9,251.8l87-150.7l53.4-30.9c7-4.1,7-14.2,0-18.3l-54.9-31.7c-7-4.1-15.8,1-15.8,9.1V91l-87,150.7l-34.6-20
	l-45.3,78.5c8.5,14.7,20.8,27.5,36.6,36.6s33,13.4,50,13.4l45.3-78.5L335.9,251.8z M414.2,77.8V48.3c0-8.1,8.8-13.2,15.8-9.1
	l25.5,14.7c7,4.1,7,14.2,0,18.3L430.1,87C423,91,414.2,85.9,414.2,77.8z"/>
<path class="st0" d="M463,487.5H37c-6.6,0-12-5.4-12-12v-151c0-6.6,5.4-12,12-12h426c6.6,0,12,5.4,12,12v151
	C475,482.1,469.6,487.5,463,487.5z"/>
<path class="st0" d="M197,293.6c-2.5,0-4.9,0.5-7.1,1.3c-2.5-10.7-12.1-18.6-23.5-18.6c-1.7,0-3.4,0.2-5,0.5
	c-5.6-17.9-22.3-30.8-42-30.8c-20.4,0-37.5,13.8-42.5,32.6c-1.4-0.2-2.9-0.3-4.3-0.3c-15.4,0-27.9,12.5-27.9,27.9
	s12.5,27.9,27.9,27.9H135h5h57c11.2,0,20.2-9,20.2-20.2S208.1,293.6,197,293.6z"/>
</svg>
