<?xml version="1.0" encoding="utf-8"?>
<!-- Generator: Adobe Illustrator 26.0.1, SVG Export Plug-In . SVG Version: 6.00 Build 0)  -->
<svg version="1.1" id="레이어_1" xmlns="http://www.w3.org/2000/svg" xmlns:xlink="http://www.w3.org/1999/xlink" x="0px"
	 y="0px" viewBox="0 0 500 500" style="enable-background:new 0 0 500 500;" xml:space="preserve">
<style type="text/css">
	.st0{fill:#AAA9A9;stroke:#AAA9A9;stroke-miterlimit:10;}
</style>
<path class="st0" d="M413,106.26h-88v25h63c6.6,0,12,5.4,12,12v276c0,6.6-5.4,12-12,12H112c-6.6,0-12-5.4-12-12v-276
	c0-6.6,5.4-12,12-12h63v-25H87c-6.6,0-12,5.4-12,12v326c0,6.6,5.4,12,12,12h326c6.6,0,12-5.4,12-12v-326
	C425,111.66,419.6,106.26,413,106.26z"/>
<path class="st0" d="M239.63,114.1l53.24,53.24c1.94,1.94,5.13,1.94,7.07,0l3.54-3.54c1.94-1.94,1.94-5.13,0-7.07l-53.24-53.24
	c-3.94-16.5-11.26-43.08-19.15-50.97c-11.72-11.72-30.71-11.72-42.43,0c-11.72,11.72-11.72,30.71,0,42.43
	C196.55,102.84,223.13,110.16,239.63,114.1z M200.22,64.08c6.86-6.86,18-6.86,24.86,0c6.86,6.86,12.99,37.85,12.99,37.85
	s-30.99-6.13-37.85-12.99C193.35,82.07,193.35,70.94,200.22,64.08z"/>
<path class="st0" d="M249.76,103.49l-53.24,53.24c-1.94,1.94-1.94,5.13,0,7.07l3.54,3.54c1.94,1.94,5.13,1.94,7.07,0l53.24-53.24
	c16.5-3.94,43.08-11.26,50.97-19.15c11.72-11.72,11.72-30.71,0-42.43c-11.72-11.72-30.71-11.72-42.43,0
	C261.02,60.41,253.7,86.99,249.76,103.49z M299.78,64.08c6.86,6.86,6.86,18,0,24.86c-6.86,6.86-37.85,12.99-37.85,12.99
	s6.13-30.99,12.99-37.85C281.79,57.21,292.92,57.21,299.78,64.08z"/>
<circle class="st0" cx="358" cy="316.26" r="30"/>
<circle class="st0" cx="140.5" cy="388.76" r="30"/>
<circle class="st0" cx="213" cy="316.26" r="30"/>
<circle class="st0" cx="285.5" cy="316.26" r="30"/>
<circle class="st0" cx="140.5" cy="316.26" r="30"/>
<circle class="st0" cx="213" cy="388.76" r="30"/>
<circle class="st0" cx="285.5" cy="388.76" r="30"/>
<circle class="st0" cx="358" cy="388.76" r="30"/>
</svg>
