<?xml version="1.0" encoding="utf-8"?>
<!-- Generator: Adobe Illustrator 26.0.1, SVG Export Plug-In . SVG Version: 6.00 Build 0)  -->
<svg version="1.1" id="레이어_1" xmlns="http://www.w3.org/2000/svg" xmlns:xlink="http://www.w3.org/1999/xlink" x="0px"
	 y="0px" viewBox="0 0 500 500" style="enable-background:new 0 0 500 500;" xml:space="preserve">
<style type="text/css">
	.st0{fill:#AAA9A9;}
</style>
<path class="st0" d="M53.1,151.6v-30.8c0.6-11.1,5-20.5,13.2-28.1c8.2-7.6,17.9-11.4,29-11.4h42.2V67.2c0-11.7,4.1-21.7,12.3-29.9
	S167.9,25,179.7,25h140.6c11.7,0,21.7,4.1,29.9,12.3c8.2,8.2,12.3,18.2,12.3,29.9v14.1h42.2c11.1,0,20.8,3.8,29,11.4
	c8.2,7.6,12.6,17,13.2,28.1v30.8c0,7.6-2.8,14.2-8.3,19.8c-5.6,5.6-12.2,8.3-19.8,8.3v239.1c0,15.8-5.4,29.2-16.3,40
	c-10.8,10.8-24.2,16.3-40,16.3h-225c-15.8,0-29.2-5.4-40-16.3c-10.8-10.8-16.3-24.2-16.3-40V179.7c-7.6,0-14.2-2.8-19.8-8.3
	C55.9,165.8,53.1,159.2,53.1,151.6z M81.2,151.6h337.5v-28.1c0-4.1-1.3-7.5-4-10.1c-2.6-2.6-6-4-10.1-4H95.3c-4.1,0-7.5,1.3-10.1,4
	c-2.6,2.6-4,6-4,10.1L81.2,151.6L81.2,151.6z M109.3,418.8c0,7.6,2.8,14.2,8.3,19.8c5.6,5.6,12.2,8.3,19.8,8.3h225
	c7.6,0,14.2-2.8,19.8-8.3c5.6-5.6,8.3-12.2,8.3-19.8V179.7H109.3L109.3,418.8L109.3,418.8z M137.5,404.7V221.9c0-4.1,1.3-7.5,4-10.1
	c2.6-2.6,6-4,10.1-4h28.1c4.1,0,7.5,1.3,10.1,4c2.6,2.6,4,6,4,10.1v182.8c0,4.1-1.3,7.5-4,10.1c-2.6,2.6-6,4-10.1,4h-28.1
	c-4.1,0-7.5-1.3-10.1-4C138.8,412.2,137.5,408.8,137.5,404.7L137.5,404.7z M151.5,404.7h28.1V221.9h-28.1V404.7z M165.6,81.3h168.8
	V67.2c0-4.1-1.3-7.5-4-10.1c-2.6-2.6-6-4-10.1-4H179.7c-4.1,0-7.5,1.3-10.1,4c-2.6,2.6-4,6-4,10.1L165.6,81.3L165.6,81.3z
	 M221.8,404.7V221.9c0-4.1,1.3-7.5,4-10.1c2.6-2.6,6-4,10.1-4H264c4.1,0,7.5,1.3,10.1,4c2.6,2.6,4,6,4,10.1v182.8
	c0,4.1-1.3,7.5-4,10.1c-2.6,2.6-6,4-10.1,4h-28.1c-4.1,0-7.5-1.3-10.1-4C223.2,412.2,221.8,408.8,221.8,404.7z M235.9,404.7H264
	V221.9h-28.1V404.7z M306.2,404.7V221.9c0-4.1,1.3-7.5,4-10.1c2.6-2.6,6-4,10.1-4h28.1c4.1,0,7.5,1.3,10.1,4c2.6,2.6,4,6,4,10.1
	v182.8c0,4.1-1.3,7.5-4,10.1c-2.6,2.6-6,4-10.1,4h-28.1c-4.1,0-7.5-1.3-10.1-4C307.5,412.2,306.2,408.8,306.2,404.7z M320.3,404.7
	h28.1V221.9h-28.1V404.7z"/>
</svg>
