<?xml version="1.0" encoding="utf-8"?>
<!-- Generator: Adobe Illustrator 26.0.1, SVG Export Plug-In . SVG Version: 6.00 Build 0)  -->
<svg version="1.1" id="레이어_1" xmlns="http://www.w3.org/2000/svg" xmlns:xlink="http://www.w3.org/1999/xlink" x="0px"
	 y="0px" viewBox="0 0 500 500" style="enable-background:new 0 0 500 500;" xml:space="preserve">
<style type="text/css">
	.st0{fill:#AAA9A9;stroke:#AAA9A9;stroke-miterlimit:10;}
	.st1{fill-rule:evenodd;clip-rule:evenodd;fill:#AAA9A9;}
</style>
<path class="st0" d="M413,106.3h-88v25h63c6.6,0,12,5.4,12,12v276c0,6.6-5.4,12-12,12H112c-6.6,0-12-5.4-12-12v-276
	c0-6.6,5.4-12,12-12h63v-25H87c-6.6,0-12,5.4-12,12v326c0,6.6,5.4,12,12,12h326c6.6,0,12-5.4,12-12v-326
	C425,111.6,419.6,106.3,413,106.3L413,106.3z"/>
<path class="st0" d="M239.6,114.1l53.2,53.2c2,2,5.1,2,7.1,0l3.5-3.5c2-2,2-5.1,0-7.1l-53.2-53.2c-3.9-16.5-11.2-43.1-19.2-51
	c-11.7-11.7-30.7-11.7-42.5,0s-11.7,30.7,0,42.5C196.6,102.8,223.1,110.2,239.6,114.1z M200.2,64.1c6.9-6.9,18-6.9,24.9,0
	c6.9,6.9,13,37.9,13,37.9s-31-6.1-37.8-13C193.4,82.1,193.3,71,200.2,64.1C200.2,64.1,200.2,64.1,200.2,64.1L200.2,64.1z"/>
<path class="st0" d="M249.8,103.5l-53.2,53.2c-2,2-2,5.1,0,7.1l3.5,3.5c2,2,5.1,2,7.1,0l53.2-53.2c16.5-3.9,43.1-11.3,51-19.2
	c11.7-11.7,11.7-30.7,0-42.4c-11.7-11.7-30.7-11.7-42.4,0l0,0C261,60.4,253.7,87,249.8,103.5z M299.8,64.1c6.9,6.9,6.9,18,0,24.9
	c-6.9,6.9-37.9,13-37.9,13s6.1-31,13-37.9C281.8,57.2,292.9,57.2,299.8,64.1C299.8,64.1,299.8,64.1,299.8,64.1L299.8,64.1z"/>
<g id="layer1">
	<g id="g3535">
		<path id="path2742" class="st1" d="M293.5,290.9l45.8-28l20.5,40.4c5,22.1-22.2,30.2-44,28.9L293.5,290.9z"/>
		<path id="path2743" class="st1" d="M283.1,319.8L259,363.2l24.1,44.1l0.6-17.6h22c8,0.7,18.4-4.7,22.3-12.5l28.2-52.9
			c-9.3,9.4-21.3,11.9-35.1,11.9H284L283.1,319.8z"/>
		<path id="path2751" class="st1" d="M229.2,266.2l-46.1-27.3l24.6-38c16.5-15.1,36.6,5.2,46.1,25.3L229.2,266.2z"/>
		<path id="path2752" class="st1" d="M259,261.5l48.9,0.4l26-42.9l-15.4,8l-10.7-19.7c-3.3-7.5-12.9-14.2-21.5-13.9l-59,0.4
			c12.6,3.8,20.5,13.3,27.2,25.6l18,33.2L259,261.5z"/>
		<path id="path2753" class="st1" d="M147.8,263.9l14.3,11.2l-13.5,25.8c-6.7,11.9,4.8,23.5,12.2,27.5s18.5,4.4,29,4.3l18.9-30.9
			l14.3,7.7l-24.8-46L147.8,263.9L147.8,263.9z"/>
		<path id="path2754" class="st1" d="M149.9,323.7l30.7,56.7c6.2,7.9,17.8,9.7,29.9,9.5h32.4v-53.7l-61.4-0.4
			C171.9,336.3,159.4,334.3,149.9,323.7z"/>
	</g>
</g>
</svg>
