<?xml version="1.0" encoding="utf-8"?>
<!-- Generator: Adobe Illustrator 26.0.1, SVG Export Plug-In . SVG Version: 6.00 Build 0)  -->
<svg version="1.1" id="Layer_1" xmlns="http://www.w3.org/2000/svg" xmlns:xlink="http://www.w3.org/1999/xlink" x="0px" y="0px"
	 viewBox="0 0 391.1 391.1" style="enable-background:new 0 0 391.1 391.1;" xml:space="preserve">
<style type="text/css">
	.st0{fill:#AAA9A9;}
</style>
<g id="layer1">
	<path id="rect2391" class="st0" d="M321.9,198.4L195.6,86.5L69.2,198.4v159.9c0,4.1,3.3,7.4,7.4,7.5c0,0,0,0,0,0h79v-70.1
		c0-4.1,3.3-7.4,7.4-7.5c0,0,0,0,0,0H228c4.1,0,7.4,3.3,7.5,7.4c0,0,0,0,0,0v70.1h79c4.1,0,7.4-3.3,7.5-7.4c0,0,0,0,0-0.1
		L321.9,198.4L321.9,198.4z"/>
	<path id="path2399" class="st0" d="M194.8,25.3L15.6,184l18.9,21.3L195.6,62.7l161,142.6l18.8-21.3L196.3,25.3l-0.7,0.8L194.8,25.3
		L194.8,25.3L194.8,25.3z"/>
	<path id="rect2404" class="st0" d="M69.2,48.2h45.4l-0.4,26.9l-45,40.7V48.2L69.2,48.2z"/>
</g>
</svg>
