<svg id="레이어_1" data-name="레이어 1" xmlns="http://www.w3.org/2000/svg" viewBox="0 0 351 413.57"><defs><style>.cls-1,.cls-2{fill:#aaa9a9;}.cls-1{stroke:#aaa9a9;stroke-miterlimit:10;}</style></defs><path class="cls-1" d="M413,106.3H325v25h63a12,12,0,0,1,12,12v276a12,12,0,0,1-12,12H112a12,12,0,0,1-12-12v-276a12,12,0,0,1,12-12h63v-25H87a12,12,0,0,0-12,12v326a12,12,0,0,0,12,12H413a12,12,0,0,0,12-12v-326a12,12,0,0,0-12-12Z" transform="translate(-74.5 -43.22)"/><path class="cls-1" d="M239.6,114.1l53.2,53.2a5,5,0,0,0,7.1,0l3.5-3.5a5,5,0,0,0,0-7.1l-53.2-53.2C246.3,87,239,60.4,231,52.5A30.05,30.05,0,0,0,188.5,95C196.6,102.8,223.1,110.2,239.6,114.1Zm-39.4-50a17.56,17.56,0,0,1,24.9,0c6.9,6.9,13,37.9,13,37.9s-31-6.1-37.8-13a17.56,17.56,0,0,1-.1-24.9Z" transform="translate(-74.5 -43.22)"/><path class="cls-1" d="M249.8,103.5l-53.2,53.2a5,5,0,0,0,0,7.1l3.5,3.5a5,5,0,0,0,7.1,0l53.2-53.2c16.5-3.9,43.1-11.3,51-19.2A30,30,0,1,0,269,52.5h0C261,60.4,253.7,87,249.8,103.5Zm50-39.4a17.56,17.56,0,0,1,0,24.9c-6.9,6.9-37.9,13-37.9,13s6.1-31,13-37.9a17.56,17.56,0,0,1,24.9,0Z" transform="translate(-74.5 -43.22)"/><rect class="cls-2" x="160.5" y="125.58" width="30" height="272.31"/></svg>