<svg id="레이어_1" data-name="레이어 1" xmlns="http://www.w3.org/2000/svg" viewBox="0 0 100 450"><defs><style>.cls-1{fill:#aaa9a9;}</style></defs><path class="cls-1" d="M82.37,142.31H65.68v25.06H82.37a2,2,0,0,0,1.57-.47,2.75,2.75,0,0,0,.38-1.67V144.45a2.75,2.75,0,0,0-.38-1.67A2,2,0,0,0,82.37,142.31Z" transform="translate(-25 -25)"/><path class="cls-1" d="M83.94,81.37a2.77,2.77,0,0,0,.38-1.67V58.91a2.73,2.73,0,0,0-.38-1.66,2,2,0,0,0-1.57-.48H65.68V81.84H82.37A2,2,0,0,0,83.94,81.37Z" transform="translate(-25 -25)"/><path class="cls-1" d="M113,25H37A12,12,0,0,0,25,37V463a12,12,0,0,0,12,12h76a12,12,0,0,0,12-12V37A12,12,0,0,0,113,25ZM48,48.39H92.11a20.37,20.37,0,0,1,5.3.56,5.89,5.89,0,0,1,3,1.75,6.84,6.84,0,0,1,1.31,3.21,30.85,30.85,0,0,1,.3,4.66V80a31.61,31.61,0,0,1-.3,4.7,6.29,6.29,0,0,1-1.31,3.17,5.89,5.89,0,0,1-3,1.75,20.37,20.37,0,0,1-5.3.56H65.68v21.3H48Zm54,377.13H66.44v19.84h35.42v8.38H48.73V390.62h53.13V399H66.44v18.13h35.5Zm1.36-98.2H85.59v-11.8a2.77,2.77,0,0,0-.38-1.67,2,2,0,0,0-1.58-.47H66.37a2,2,0,0,0-1.58.47,2.77,2.77,0,0,0-.38,1.67V357.6a2.75,2.75,0,0,0,.38,1.67,2,2,0,0,0,1.58.47H83.63a2,2,0,0,0,1.58-.47,2.75,2.75,0,0,0,.38-1.67V344.17H103.3V358a31.7,31.7,0,0,1-.3,4.7,6.2,6.2,0,0,1-1.31,3.16,5.9,5.9,0,0,1-3,1.76,20.4,20.4,0,0,1-5.29.55H56.61a20.4,20.4,0,0,1-5.29-.55,5.9,5.9,0,0,1-3-1.76A6.2,6.2,0,0,1,47,362.65a31.7,31.7,0,0,1-.3-4.7V315.18a30.76,30.76,0,0,1,.3-4.66,6.66,6.66,0,0,1,1.31-3.21,6,6,0,0,1,3-1.76,20.4,20.4,0,0,1,5.29-.55H93.39a20.4,20.4,0,0,1,5.29.55,6,6,0,0,1,3,1.76,6.66,6.66,0,0,1,1.31,3.21,30.76,30.76,0,0,1,.3,4.66ZM66.1,282.59V219.46H83.81v63.13Zm22.46-85.45L78,175.75H65.68v21.3H48V133.93H92.11a20.43,20.43,0,0,1,5.3.55,6,6,0,0,1,3,1.76,6.76,6.76,0,0,1,1.31,3.2,31,31,0,0,1,.3,4.67v21.47a32.43,32.43,0,0,1-.26,4.4,6.74,6.74,0,0,1-1.1,3,5.1,5.1,0,0,1-2.46,1.92,13.91,13.91,0,0,1-4.23.81l10.84,21.39Z" transform="translate(-25 -25)"/></svg>