<svg id="레이어_1" data-name="레이어 1" xmlns="http://www.w3.org/2000/svg" viewBox="0 0 100 450"><defs><style>.cls-1{fill:#aaa9a9;}</style></defs><path class="cls-1" d="M113,25H37A12,12,0,0,0,25,37V463a12,12,0,0,0,12,12h76a12,12,0,0,0,12-12V37A12,12,0,0,0,113,25ZM47.92,147.16h54.16v9.51h-17v47H65v-47h-17Zm56,170.72H84.62v-8.31a1.55,1.55,0,0,0-2-1.88H68.19a2.17,2.17,0,0,0-1.58.41,2.22,2.22,0,0,0-.38,1.47v33.68a2.22,2.22,0,0,0,.38,1.47,2.17,2.17,0,0,0,1.58.42H82.67a3.13,3.13,0,0,0,1.44-.27,1.1,1.1,0,0,0,.51-1.09V333.51H75.34V324h28.53v21.68a24.77,24.77,0,0,1-.3,4.15,5.18,5.18,0,0,1-1.32,2.79,6.12,6.12,0,0,1-3,1.55,23.05,23.05,0,0,1-5.32.49H56.09a23,23,0,0,1-5.32-.49,6.12,6.12,0,0,1-3-1.55,5.18,5.18,0,0,1-1.32-2.79,24.77,24.77,0,0,1-.3-4.15V307.16a24.15,24.15,0,0,1,.3-4.12,5.6,5.6,0,0,1,1.32-2.83,6.21,6.21,0,0,1,3-1.55,23.56,23.56,0,0,1,5.32-.49H93.91a23.63,23.63,0,0,1,5.32.49,6.21,6.21,0,0,1,3,1.55,5.6,5.6,0,0,1,1.32,2.83,24.15,24.15,0,0,1,.3,4.12Zm-16.1-38.74-4-10.57H65.63L61.8,279.14H42.55l22.74-56.47H83.94L107,279.14Z" transform="translate(-25 -25)"/><polygon class="cls-1" points="44.04 234.06 55.19 234.06 49.57 219.03 44.04 234.06"/></svg>