<svg id="레이어_1" data-name="레이어 1" xmlns="http://www.w3.org/2000/svg" viewBox="0 0 351 413.53"><defs><style>.cls-1,.cls-2{fill:#aaa9a9;}.cls-1{stroke:#aaa9a9;stroke-miterlimit:10;}.cls-2{font-size:147.87px;font-family:H2hdrM, HYHeadLine-Medium;}</style></defs><path class="cls-1" d="M413,106.26H325v25h63a12,12,0,0,1,12,12v276a12,12,0,0,1-12,12H112a12,12,0,0,1-12-12v-276a12,12,0,0,1,12-12h63v-25H87a12,12,0,0,0-12,12v326a12,12,0,0,0,12,12H413a12,12,0,0,0,12-12v-326A12,12,0,0,0,413,106.26Z" transform="translate(-74.5 -43.23)"/><path class="cls-1" d="M239.63,114.1l53.24,53.24a5,5,0,0,0,7.07,0l3.54-3.54a5,5,0,0,0,0-7.07l-53.24-53.24C246.3,87,239,60.41,231.09,52.52A30,30,0,0,0,188.66,95C196.55,102.84,223.13,110.16,239.63,114.1Zm-39.41-50a17.59,17.59,0,0,1,24.86,0c6.86,6.86,13,37.85,13,37.85s-31-6.13-37.85-13A17.57,17.57,0,0,1,200.22,64.08Z" transform="translate(-74.5 -43.23)"/><path class="cls-1" d="M249.76,103.49l-53.24,53.24a5,5,0,0,0,0,7.07l3.54,3.54a5,5,0,0,0,7.07,0l53.24-53.24c16.5-3.94,43.08-11.26,51-19.15a30,30,0,0,0-42.43-42.43C261,60.41,253.7,87,249.76,103.49Zm50-39.41a17.59,17.59,0,0,1,0,24.86c-6.86,6.86-37.85,13-37.85,13s6.13-31,13-37.85A17.57,17.57,0,0,1,299.78,64.08Z" transform="translate(-74.5 -43.23)"/><text class="cls-2" transform="translate(35.65 304.7) scale(1.02 1)">1.5L</text></svg>