<svg id="레이어_1" data-name="레이어 1" xmlns="http://www.w3.org/2000/svg" viewBox="0 0 351 413.53"><defs><style>.cls-1,.cls-2{fill:#aaa9a9;}.cls-1{stroke:#aaa9a9;stroke-miterlimit:10;}.cls-2{isolation:isolate;font-size:179.38px;font-family:H2hdrM, HYHeadLine-Medium;}</style></defs><path class="cls-1" d="M338.5,63h-88V88h63a12,12,0,0,1,12,12V376a12,12,0,0,1-12,12H37.5a12,12,0,0,1-12-12V100a12,12,0,0,1,12-12h63V63h-88A12,12,0,0,0,.5,75V401a12,12,0,0,0,12,12h326a12,12,0,0,0,12-12V75a12,12,0,0,0-12-12Z" transform="translate(0 0)"/><path class="cls-1" d="M165.13,70.87l53.24,53.24a5,5,0,0,0,7.07,0l3.54-3.54a5,5,0,0,0,0-7.07L175.74,60.26c-3.94-16.49-11.24-43.08-19.15-51a30,30,0,1,0-42.43,42.48C122.05,59.61,148.63,66.93,165.13,70.87Zm-39.41-50a17.59,17.59,0,0,1,24.86,0c6.86,6.86,13,37.85,13,37.85s-31-6.13-37.85-13a17.58,17.58,0,0,1,0-24.85l0,0Z" transform="translate(0 0)"/><path class="cls-1" d="M175.26,60.26,122,113.5a5,5,0,0,0,0,7.07l3.54,3.54a5,5,0,0,0,7.07,0l53.24-53.24c16.5-3.94,43.08-11.26,51-19.15A30,30,0,0,0,194.44,9.29h0C186.5,17.18,179.2,43.77,175.26,60.26Zm50-39.41a17.59,17.59,0,0,1,0,24.86c-6.86,6.86-37.85,13-37.85,13s6.13-31,13-37.85a17.58,17.58,0,0,1,24.85,0l0,0Z" transform="translate(0 0)"/><text class="cls-2" transform="translate(80.69 317.75) scale(1.04 1)">3L</text></svg>